<svg width="32" height="32" viewBox="0 0 32 32" fill="none" xmlns="http://www.w3.org/2000/svg">
<path d="M3.55566 15.9983L2.40319 15.5142L2.19989 15.9983L2.40319 16.4823L3.55566 15.9983ZM28.4446 15.9983L29.597 16.4823L29.8003 15.9983L29.597 15.5142L28.4446 15.9983ZM3.55566 15.9983C4.70814 16.4823 4.70796 16.4827 4.70779 16.4831C4.70775 16.4832 4.7076 16.4836 4.70752 16.4838C4.70737 16.4841 4.70727 16.4844 4.70723 16.4845C4.70715 16.4846 4.7073 16.4843 4.70766 16.4834C4.7084 16.4817 4.71002 16.478 4.71255 16.4722C4.7176 16.4606 4.72623 16.441 4.73848 16.4139C4.76299 16.3598 4.80194 16.2758 4.85558 16.1663C4.96297 15.9472 5.12869 15.6269 5.35483 15.2392C5.80854 14.4614 6.49752 13.4261 7.43573 12.3951C9.31423 10.3308 12.1145 8.35938 16.0001 8.35938V5.85938C11.1746 5.85938 7.75266 8.33236 5.58671 10.7125C4.5027 11.9037 3.7139 13.0907 3.19538 13.9795C2.93541 14.4252 2.74141 14.7993 2.61061 15.0663C2.54516 15.1999 2.49538 15.3069 2.46096 15.383C2.44374 15.421 2.43034 15.4513 2.42073 15.4734C2.41593 15.4844 2.41206 15.4934 2.40914 15.5002C2.40768 15.5036 2.40645 15.5065 2.40546 15.5088C2.40497 15.51 2.40453 15.511 2.40415 15.5119C2.40396 15.5124 2.40372 15.513 2.40362 15.5132C2.4034 15.5137 2.40319 15.5142 3.55566 15.9983ZM16.0001 8.35938C19.8857 8.35938 22.686 10.3308 24.5645 12.3951C25.5027 13.4261 26.1917 14.4614 26.6454 15.2392C26.8715 15.6269 27.0372 15.9472 27.1446 16.1663C27.1983 16.2758 27.2372 16.3598 27.2617 16.4139C27.274 16.441 27.2826 16.4606 27.2877 16.4722C27.2902 16.478 27.2918 16.4817 27.2926 16.4834C27.2929 16.4843 27.2931 16.4846 27.293 16.4845C27.2929 16.4844 27.2928 16.4841 27.2927 16.4838C27.2926 16.4836 27.2925 16.4832 27.2924 16.4831C27.2923 16.4827 27.2921 16.4823 28.4446 15.9983C29.597 15.5142 29.5968 15.5137 29.5966 15.5132C29.5965 15.513 29.5963 15.5124 29.5961 15.5119C29.5957 15.511 29.5953 15.51 29.5948 15.5088C29.5938 15.5065 29.5925 15.5036 29.5911 15.5002C29.5882 15.4934 29.5843 15.4844 29.5795 15.4734C29.5699 15.4513 29.5565 15.421 29.5393 15.383C29.5048 15.3069 29.4551 15.1999 29.3896 15.0663C29.2588 14.7993 29.0648 14.4252 28.8048 13.9795C28.2863 13.0907 27.4975 11.9037 26.4135 10.7125C24.2476 8.33236 20.8256 5.85938 16.0001 5.85938V8.35938ZM28.4446 15.9983C27.2921 15.5142 27.2923 15.5138 27.2924 15.5134C27.2925 15.5133 27.2926 15.5129 27.2927 15.5127C27.2928 15.5124 27.2929 15.5122 27.293 15.5121C27.2931 15.5119 27.2929 15.5122 27.2926 15.5131C27.2918 15.5148 27.2902 15.5186 27.2877 15.5244C27.2826 15.536 27.274 15.5555 27.2617 15.5826C27.2372 15.6368 27.1983 15.7207 27.1446 15.8302C27.0372 16.0493 26.8715 16.3696 26.6454 16.7573C26.1917 17.5351 25.5027 18.5704 24.5645 19.6014C22.686 21.6657 19.8857 23.6372 16.0001 23.6372V26.1372C20.8256 26.1372 24.2476 23.6642 26.4135 21.284C27.4975 20.0928 28.2863 18.9059 28.8048 18.017C29.0648 17.5713 29.2588 17.1972 29.3896 16.9302C29.4551 16.7967 29.5048 16.6896 29.5393 16.6136C29.5565 16.5755 29.5699 16.5452 29.5795 16.5232C29.5843 16.5121 29.5882 16.5032 29.5911 16.4963C29.5925 16.4929 29.5938 16.49 29.5948 16.4877C29.5953 16.4865 29.5957 16.4855 29.5961 16.4846C29.5963 16.4841 29.5965 16.4836 29.5966 16.4833C29.5968 16.4828 29.597 16.4823 28.4446 15.9983ZM16.0001 23.6372C12.1145 23.6372 9.31423 21.6657 7.43573 19.6014C6.49752 18.5704 5.80854 17.5351 5.35483 16.7573C5.12869 16.3696 4.96297 16.0493 4.85558 15.8302C4.80194 15.7207 4.76299 15.6368 4.73848 15.5826C4.72623 15.5555 4.7176 15.536 4.71255 15.5244C4.71002 15.5186 4.7084 15.5148 4.70766 15.5131C4.7073 15.5122 4.70715 15.5119 4.70723 15.5121C4.70727 15.5122 4.70737 15.5124 4.70752 15.5127C4.7076 15.5129 4.70775 15.5133 4.70779 15.5134C4.70796 15.5138 4.70814 15.5142 3.55566 15.9983C2.40319 16.4823 2.4034 16.4828 2.40362 16.4833C2.40372 16.4836 2.40396 16.4841 2.40415 16.4846C2.40453 16.4855 2.40497 16.4865 2.40546 16.4877C2.40645 16.49 2.40768 16.4929 2.40914 16.4963C2.41206 16.5032 2.41593 16.5121 2.42073 16.5232C2.43034 16.5452 2.44374 16.5755 2.46096 16.6136C2.49538 16.6896 2.54516 16.7967 2.61061 16.9302C2.74141 17.1972 2.93541 17.5713 3.19538 18.017C3.7139 18.9059 4.5027 20.0928 5.58671 21.284C7.75266 23.6642 11.1746 26.1372 16.0001 26.1372V23.6372Z" fill="#BCCED1"/>
<path d="M14.2225 15.9987C14.2225 14.4569 14.7976 13.3061 15.3781 12.532C15.5965 12.2408 15.8146 12.0048 16.0003 11.8246C16.1861 12.0048 16.4041 12.2408 16.6225 12.532C17.2031 13.3061 17.7781 14.4569 17.7781 15.9987C17.7781 17.5405 17.2031 18.6913 16.6225 19.4654C16.4041 19.7566 16.1861 19.9926 16.0003 20.1728C15.8146 19.9926 15.5965 19.7566 15.3781 19.4654C14.7976 18.6913 14.2225 17.5405 14.2225 15.9987Z" fill="#BCCED1" stroke="#BCCED1" stroke-width="1.77778"/>
</svg>
