<svg width="32" height="32" viewBox="0 0 32 32" fill="none" xmlns="http://www.w3.org/2000/svg">
<path d="M3.99902 4.41604H2.74902V6.91604H3.99902V4.41604ZM27.999 6.91604H29.249V4.41604H27.999V6.91604ZM26.5824 5.66604C26.5824 4.97568 26.0227 4.41604 25.3324 4.41604C24.642 4.41604 24.0824 4.97568 24.0824 5.66604H26.5824ZM7.91569 5.66604C7.91569 4.97568 7.35605 4.41604 6.66569 4.41604C5.97533 4.41604 5.41569 4.97568 5.41569 5.66604H7.91569ZM14.5824 11.8883V10.6383H12.0824V11.8883H14.5824ZM12.0824 22.5549V23.8049H14.5824V22.5549H12.0824ZM19.9157 11.8883V10.6383H17.4157V11.8883H19.9157ZM17.4157 22.5549V23.8049H19.9157V22.5549H17.4157ZM12.4435 1.99219H11.1935V4.49219H12.4435V1.99219ZM19.5546 4.49219H20.8046V1.99219H19.5546V4.49219ZM3.99902 6.91604H27.999V4.41604H3.99902V6.91604ZM24.0824 5.66604V26.1105H26.5824V5.66604H24.0824ZM24.0824 26.1105C24.0824 26.3706 23.9397 26.7354 23.6151 27.0599C23.2906 27.3845 22.9258 27.5271 22.6657 27.5271V30.0271C23.7389 30.0271 24.7075 29.5031 25.3829 28.8277C26.0583 28.1523 26.5824 27.1837 26.5824 26.1105H24.0824ZM22.6657 27.5271H9.33236V30.0271H22.6657V27.5271ZM9.33236 27.5271C9.07223 27.5271 8.70748 27.3845 8.38291 27.0599C8.05834 26.7354 7.91569 26.3706 7.91569 26.1105H5.41569C5.41569 27.1837 5.93971 28.1523 6.61514 28.8277C7.29057 29.5031 8.25915 30.0271 9.33236 30.0271V27.5271ZM7.91569 26.1105V5.66604H5.41569V26.1105H7.91569ZM12.0824 11.8883V22.5549H14.5824V11.8883H12.0824ZM17.4157 11.8883V22.5549H19.9157V11.8883H17.4157ZM12.4435 4.49219H19.5546V1.99219H12.4435V4.49219Z" fill="#BCCED1"/>
</svg>
