<svg width="32" height="32" viewBox="0 0 32 32" fill="none" xmlns="http://www.w3.org/2000/svg">
<g clip-path="url(#clip0_1330_12453)">
<path d="M-0.132812 2H1.9683C2.60673 2 2.92595 2 3.17245 2.15781C3.21607 2.18573 3.25745 2.21701 3.29623 2.25134C3.51535 2.44538 3.60252 2.75247 3.77685 3.36664L4.95108 7.5034M4.95108 7.5034L7.90347 18.2748C8.48503 20.3965 8.77581 21.4574 9.54719 22.0679C9.6828 22.1753 9.82744 22.2707 9.97949 22.3531C10.8444 22.8219 11.9341 22.6716 14.1134 22.371L22.5907 21.2018C24.2427 20.9739 25.0688 20.86 25.6916 20.3908C25.8024 20.3074 25.9073 20.2163 26.0055 20.1183C26.5575 19.5675 26.7862 18.7656 27.2437 17.1619L28.6321 12.2949C29.2162 10.2474 29.5083 9.22365 29.0687 8.48281C28.9931 8.35549 28.9037 8.23695 28.802 8.12937C28.2101 7.5034 27.1456 7.5034 25.0164 7.5034H4.95108Z" stroke="#090909" stroke-width="2.5"/>
<circle cx="10.75" cy="28.75" r="2.25" fill="#090909"/>
<circle cx="24.75" cy="28.75" r="2.25" fill="#090909"/>
</g>
<defs>
<clipPath id="clip0_1330_12453">
<rect width="32" height="32" fill="white"/>
</clipPath>
</defs>
</svg>
