<svg width="381" height="185" viewBox="0 0 381 185" fill="none" xmlns="http://www.w3.org/2000/svg">
<path d="M73.1887 156.222C72.1305 157.841 71.3856 159.924 70.9539 162.471C70.6399 165.117 70.6717 167.35 71.0492 169.171C70.079 168.056 69.2874 166.489 68.6745 164.47C68.1792 162.55 68.0182 160.71 68.1914 158.949C67.7029 160.847 66.9438 162.767 65.914 164.712C65.002 166.755 63.939 168.321 62.7252 169.409C62.9878 167.422 62.7205 164.991 61.9236 162.116C61.1361 159.349 60.0759 157.205 58.743 155.686C58.6077 157.879 57.837 160.292 56.4311 162.924C55.0346 165.664 53.4683 167.71 51.7321 169.061C52.6442 167.018 52.9088 164.432 52.5259 161.302C52.2607 158.271 51.5063 155.882 50.2628 154.137C49.873 155.916 48.9562 157.905 47.5124 160.104C46.0685 162.303 44.5631 163.798 42.9962 164.59C43.8379 162.989 44.2533 160.88 44.2425 158.263C44.2317 155.646 43.9882 153.486 43.5119 151.782C41.3752 152.296 39.2555 153.627 37.1526 155.775C35.0498 157.922 33.4787 159.914 32.4395 161.75C32.1513 159.703 32.2582 157.185 32.7603 154.195C33.2623 151.206 34.1507 148.892 35.4254 147.254C32.9072 147.147 29.9045 147.737 26.4174 149.024C23.0385 150.301 20.5636 151.935 18.9925 153.927C19.0995 151.409 20.1076 148.594 22.0169 145.482C23.9263 142.369 25.8478 140.02 27.7815 138.432C26.2375 138.24 24.4514 138.396 22.423 138.901C20.3946 139.406 18.7735 140.202 17.5597 141.29C18.4203 139.906 19.7281 138.646 21.4832 137.511C23.2288 136.267 24.8594 135.579 26.3749 135.447C24.3032 134.21 21.58 133.63 18.2052 133.707C14.8304 133.784 11.9759 134.197 9.6417 134.947C11.3399 133.162 13.7702 131.641 16.9326 130.382C19.9867 129.133 22.7187 128.567 25.1287 128.683C24.5158 126.665 24.3027 124.229 24.4894 121.376C24.6762 118.524 25.3433 116.175 26.4908 114.329C26.0213 116.443 26.1802 118.883 26.9678 121.65C27.7553 124.418 28.8743 126.61 30.3249 128.229C30.4277 126.911 30.9352 125.23 31.8472 123.187C32.7593 121.144 33.6693 119.701 34.5773 118.858C34.9075 120.138 35.699 121.705 36.952 123.558C38.2051 125.412 39.406 126.671 40.5548 127.334C41.5332 126.048 42.1394 124.25 42.3735 121.939C42.6076 119.628 42.5407 117.615 42.1726 115.902C43.1428 117.017 43.9838 118.525 44.6956 120.427C45.3978 122.22 45.7611 123.879 45.7855 125.404C46.1089 122.866 46.9242 120.341 48.2314 117.827C47.567 116.467 47.0109 115.097 46.563 113.718C46.2139 112.222 46.1002 110.923 46.222 109.821C44.7633 110.603 43.239 111.882 41.649 113.657C40.1578 115.315 39.0996 116.935 38.4744 118.517C37.9183 117.147 37.6585 115.425 37.695 113.349C37.8304 111.155 38.1071 109.331 38.5253 107.877C37.8906 109.35 36.8818 110.911 35.4989 112.559C34.1065 114.099 32.7255 115.147 31.3561 115.703C32.5605 114.507 33.5598 112.838 34.3541 110.696C35.2567 108.544 35.6322 106.603 35.4807 104.871C34.865 106.561 33.7033 108.244 31.9956 109.921C30.2879 111.597 28.5869 112.728 26.8927 113.312C28.3325 112.314 29.6167 110.783 30.7453 108.721C31.9821 106.649 32.6871 104.733 32.8603 102.973C31.3407 104.306 29.2067 105.474 26.4585 106.478C23.8184 107.473 21.5099 107.893 19.533 107.738C21.1703 106.504 22.7603 104.729 24.3029 102.412C25.9443 99.9781 26.8422 97.7725 26.9965 95.7955C25.4674 97.0201 23.4863 98.0661 21.0533 98.9334C18.6109 99.6925 16.4011 99.9949 14.4242 99.8407C16.3727 99.6702 18.4316 98.8901 20.6007 97.5004C22.8686 95.993 24.5858 94.4247 25.7523 92.7955C24.2462 93.0364 22.3822 92.9268 20.1603 92.4667C17.9384 92.0066 16.2436 91.3367 15.0758 90.4572C16.5724 90.1081 18.1888 89.2576 19.9249 87.9058C21.7693 86.5446 23.0135 85.1813 23.6577 83.8159C21.5305 84.4384 19.0217 84.4397 16.1314 83.8199C13.241 83.2001 10.9224 82.2576 9.17547 80.9924C11.2796 81.3537 13.7295 81.303 16.5252 80.8402C19.4196 80.2598 21.7937 79.343 23.6476 78.09C22.5123 76.335 20.7275 74.6367 18.2932 72.9953C15.8494 71.2456 13.5754 70.1901 11.4712 69.8288C13.2263 68.6935 15.6241 68.0474 18.6647 67.8905C21.7052 67.7336 24.0706 67.9629 25.7607 68.5787C23.9623 67.9724 22.0178 66.9426 19.9272 65.4893C17.9448 64.0265 16.5531 62.4575 15.7521 60.7823C17.2825 62.0665 19.2317 63.1504 21.5997 64.034C23.9583 64.8094 26.1213 65.2201 28.0888 65.2661C26.7844 64.0713 25.5902 62.2668 24.5064 59.8528C23.4225 57.4387 22.8637 55.4151 22.8299 53.7818C24.0261 54.9861 25.9164 56.0206 28.5009 56.8853C31.076 57.6418 33.2201 57.836 34.9332 57.4679C33.6193 56.1648 32.484 54.4098 31.5273 52.2027C30.6695 49.878 30.0281 47.5343 29.6032 45.1717C29.2771 42.6913 29.2501 40.5121 29.5221 38.6339C30.2244 40.4268 31.3644 42.236 32.9422 44.0615C34.6282 45.8774 36.4576 47.4627 38.4305 48.8172C40.5117 50.1623 42.4467 51.0838 44.2356 51.5818C44.9731 48.7902 44.8513 45.5284 43.8703 41.7964C42.9976 38.0549 41.7487 35.0008 40.1235 32.6341C42.068 33.6638 43.9069 35.3574 45.6403 37.7146C47.3737 40.0718 48.6788 42.5211 49.5556 45.0623C49.3229 41.1557 49.8013 37.896 50.9908 35.283C51.486 37.2032 52.4379 39.3561 53.8465 41.7417C55.2551 44.1273 56.8234 45.8445 58.5514 46.8932C59.8451 45.4711 60.8606 43.3642 61.5981 40.5726C62.3262 37.6728 62.5014 35.3122 62.1239 33.4909C63.6449 34.6668 65.0603 36.5064 66.3701 39.0098C67.7787 41.3954 68.6224 43.5578 68.9011 45.4969C70.077 43.9759 71.0926 41.8691 71.9478 39.1763C72.8031 36.4835 73.0913 34.1676 72.8126 32.2285C74.136 33.6399 75.1914 35.7291 75.9789 38.4964C76.8747 41.2541 77.1324 43.5768 76.7522 45.4645C78.1825 44.3576 79.5066 42.6601 80.7244 40.3719C81.9423 38.0837 82.6331 36.0053 82.7969 34.1366C84.012 35.5574 84.8415 37.5574 85.2853 40.1365C85.8373 42.7062 86.0315 44.9254 85.8677 46.7941C88.1356 45.2867 90.3867 42.9627 92.6208 39.822C94.9631 36.6719 96.3948 33.7105 96.9158 30.9378C97.8251 32.6036 98.4381 34.6225 98.7547 36.9946C99.0713 39.3667 99.1173 41.7625 98.8926 44.1819C98.668 46.6014 98.0807 48.6163 97.1307 50.2265C99.5353 49.0344 101.991 47.1833 104.499 44.6732C107.105 42.0454 108.958 39.538 110.058 37.151C110.61 39.7207 110.447 42.8438 109.569 46.5203C108.79 50.0791 107.56 52.8592 105.881 54.8605C108.173 54.8781 110.846 54.2625 113.9 53.0135C117.063 51.7551 119.503 50.3418 121.22 48.7735C121.352 50.289 121.071 52.059 120.375 54.0833C119.788 56.0981 118.975 58.0237 117.936 59.8599C116.887 61.5879 115.751 62.9417 114.528 63.9214C116.49 62.6589 119.05 61.9986 122.208 61.9404C125.475 61.8728 128.188 62.3444 130.349 63.3553C128.086 63.6624 125.617 64.751 122.945 66.6211C120.381 68.4816 118.471 70.3395 117.215 72.1947C117.102 73.4044 116.423 74.991 115.177 76.9544C113.921 78.8096 112.771 80.001 111.726 80.5287C111.307 79.4746 110.313 78.089 108.745 76.3718C107.285 74.6451 105.994 73.6127 104.874 73.2743C103.463 74.5977 102.388 76.6552 101.651 79.4468C100.904 82.1301 100.615 84.446 100.786 86.3946C99.9618 85.7031 99.1141 84.741 98.2427 83.5082C98.8881 84.6517 99.3759 85.8634 99.7061 87.1435C100.027 88.3154 100.166 89.2849 100.124 90.0522C101.592 89.3783 103.112 88.0455 104.683 86.0536C106.254 84.0618 107.244 82.2844 107.653 80.7215C108.543 82.1708 109.097 84.1403 109.315 86.6301C109.641 89.1105 109.491 91.1416 108.866 92.7234C111.083 91.875 113.346 90.3135 115.656 88.0388C118.064 85.6465 119.666 83.3793 120.46 81.2372C120.767 83.5011 120.517 86.25 119.709 89.4841C118.901 92.7181 117.757 95.2181 116.275 96.9839C117.639 95.1193 119.725 93.4096 122.535 91.8548C125.334 90.1918 127.871 89.2609 130.144 89.062C128.182 90.3245 126.281 92.2906 124.442 94.9604C122.594 97.5219 121.445 99.9677 120.994 102.298C123.154 100.8 126.015 99.8406 129.578 99.4198C133.131 98.8907 136.235 98.8373 138.89 99.2595C136.321 99.8116 133.492 101.15 130.406 103.274C127.427 105.389 125.388 107.64 124.288 110.027C126.138 109.974 128.355 110.38 130.94 111.245C133.632 112.1 135.586 113.238 136.801 114.659C135.069 114.811 132.956 115.596 130.462 117.014C127.969 118.432 126.247 119.946 125.297 121.556C127.002 123.589 129.455 125.447 132.657 127.13C135.858 128.813 138.782 129.812 141.427 130.126C139.131 131.309 136.133 131.953 132.433 132.058C128.724 132.055 125.676 131.504 123.289 130.404C123.667 132.225 124.713 134.206 126.427 136.347C128.142 138.488 129.755 140.092 131.266 141.159C129.454 141.645 127.216 141.623 124.552 141.092C121.878 140.454 119.736 139.659 118.125 138.709C118.56 141.18 119.82 143.743 121.907 146.396C124.092 148.932 126.329 150.809 128.617 152.027C126.16 151.369 123.537 150.071 120.75 148.134C118.071 146.186 116.144 144.119 114.971 141.931C115.198 144.529 116.257 147.272 118.146 150.161C120.035 153.05 122.029 155.276 124.129 156.837C121.653 155.963 119.115 154.385 116.516 152.104C113.907 149.714 112.223 147.298 111.464 144.855C110.641 146.673 110.367 149.151 110.642 152.29C111.025 155.42 111.68 157.926 112.608 159.809C110.593 159.221 108.305 158.003 105.744 156.155C103.291 154.297 101.55 152.486 100.523 150.721C101.805 152.9 102.858 155.589 103.684 158.79C104.518 162.098 104.553 164.986 103.787 167.452C103.786 164.944 102.895 162.24 101.114 159.342C99.3332 156.443 97.4963 154.149 95.6032 152.461C94.4178 153.873 93.5599 155.912 93.0294 158.576C92.5084 161.349 92.3826 163.651 92.6518 165.481C90.9523 164.757 89.1864 163.276 87.3543 161.036C85.6398 158.896 84.5986 156.969 84.2305 155.256C82.8056 157.671 81.9883 160.797 81.7785 164.633C81.677 168.46 82.1776 171.688 83.2804 174.319C81.5565 172.07 79.884 169.162 78.263 165.595C76.7502 162.019 75.0588 158.894 73.1887 156.222ZM73.4007 76.3552C73.1937 76.4823 72.9325 76.6143 72.6172 76.7509C73.5171 78.3084 74.2829 80.2049 74.9148 82.4403C75.5373 84.5675 75.6935 86.3537 75.3836 87.7989C76.1644 86.7488 76.8133 85.4376 77.3302 83.8652C77.0528 84.4349 76.7754 85.0046 76.498 85.5743C75.4804 83.918 74.8438 81.6284 74.5881 78.7056C74.4311 75.665 74.6558 73.2456 75.262 71.4473C74.0198 72.2104 72.9474 73.6678 72.0448 75.8193L72.2072 75.8051C72.6592 75.9837 73.057 76.1671 73.4007 76.3552ZM84.9723 75.8336C84.592 77.7213 84.7862 79.9405 85.5547 82.4912C86.3233 85.0419 87.3152 87.0277 88.5303 88.4485C89.7914 87.9019 91.2123 86.6867 92.7928 84.8032C94.3733 82.9196 95.3232 81.3093 95.6426 79.9724C95.9863 80.1605 96.3442 80.511 96.7163 81.0238C95.5432 78.8357 94.822 76.8263 94.5527 74.9955C94.5635 77.6125 93.9951 79.8438 92.8476 81.6895C92.8612 80.5975 92.5899 79.3668 92.0337 77.9974C91.4681 76.5198 90.7686 75.3811 89.935 74.5813C89.0744 75.9656 88.5223 77.7592 88.2787 79.9622C88.1434 82.1556 88.3585 83.9912 88.9241 85.4689C88.0432 84.1279 87.2421 82.4527 86.5209 80.4432C85.8985 78.316 85.7375 76.4757 86.0379 74.9223C84.9933 75.45 83.9134 76.199 82.7984 77.1692C81.6834 78.1394 80.6367 79.2672 79.6584 80.5527C79.998 81.9411 80.1847 83.4519 80.2185 85.0852C80.6177 83.414 81.2334 81.7239 82.0656 80.0149C83.0061 78.2964 83.975 76.9026 84.9723 75.8336ZM68.7424 79.217C68.6626 79.5513 68.6321 79.8266 68.6511 80.0431C69.0367 79.464 69.4271 78.939 69.8222 78.4681C69.4082 78.7225 69.0482 78.9721 68.7424 79.217ZM63.055 85.2778C64.5232 84.6039 66.1463 83.2075 67.9244 81.0885C67.7877 80.7732 67.6017 80.5167 67.3662 80.3192C65.3338 82.0241 63.8967 83.677 63.055 85.2778ZM62.0641 120.707C62.5823 121.643 62.9714 122.973 63.2311 124.695C63.4815 126.31 63.4375 127.677 63.0992 128.798C64.2426 128.152 65.3481 127.074 66.4158 125.562C67.5917 124.041 68.3394 122.612 68.6587 121.275C69.2338 122.861 69.5031 124.692 69.4665 126.768C69.8048 125.647 70.3102 124.567 70.9827 123.526C71.6553 122.486 72.3515 121.716 73.0714 121.217C72.9401 122.21 73.0984 123.396 73.5463 124.775C73.8657 123.438 73.886 121.8 73.6073 119.861C72.5058 119.739 71.5126 119.608 70.6276 119.467C71.4747 119.175 72.3759 118.878 73.3312 118.576C72.9253 116.43 72.3313 114.627 71.5492 113.169C71.2677 114.939 70.3604 117.036 68.8272 119.461C67.294 121.886 65.7487 123.548 64.1912 124.448C64.1479 122.706 63.4666 120.53 62.1473 117.918C60.9363 115.297 59.6833 113.443 58.3883 112.357C57.3437 112.884 56.0663 113.869 54.5561 115.31C53.1448 116.633 52.0088 117.987 51.1481 119.371C51.803 120.623 52.5662 121.865 53.4376 123.098C54.3091 124.331 55.1568 125.293 55.9809 125.984C57.0539 125.781 58.2515 125.131 59.5735 124.034C60.8861 122.828 61.7163 121.719 62.0641 120.707ZM84.4847 115.146C83.7743 115.753 83.1275 116.464 82.5442 117.279C82.7608 117.26 82.982 117.295 83.208 117.385C83.5652 116.481 83.9908 115.734 84.4847 115.146ZM77.009 130.689C76.1227 128.04 76.0882 125.152 76.9056 122.026C76.8771 121.702 76.8393 121.269 76.7919 120.727C76.5659 120.638 76.2858 120.554 75.9516 120.474C75.256 122.498 74.459 123.986 73.5605 124.937C74.4468 127.587 75.5963 129.504 77.009 130.689ZM81.8277 124.05C81.7898 123.617 81.8108 123.234 81.8906 122.899C81.2032 122.523 80.5205 122.201 79.8426 121.933C79.4759 122.729 79.1633 123.52 78.9048 124.306C79.9887 126.72 81.2864 128.461 82.7978 129.528C83.0793 127.759 82.9487 125.643 82.4062 123.181C82.2086 123.417 82.0158 123.706 81.8277 124.05ZM156.823 150.377C155.826 151.446 154.866 152.948 153.945 154.883C153.131 156.809 152.683 158.539 152.599 160.073C151.737 158.949 151.098 157.259 150.683 155.005C150.385 152.849 150.5 151.039 151.026 149.575C150.382 150.941 149.211 152.516 147.512 154.3C145.814 156.085 144.221 157.206 142.734 157.664C143.251 156.091 143.46 154.11 143.36 151.719C143.259 149.328 142.769 147.462 141.888 146.121C139.86 146.625 137.667 147.744 135.31 149.478C132.952 151.211 131.308 152.991 130.377 154.818C130.442 153.067 130.872 151.12 131.666 148.978C132.461 146.836 133.441 144.951 134.607 143.321C133.413 144.626 131.928 145.738 130.154 146.656C128.488 147.566 126.844 148.091 125.22 148.233C127.022 147.639 128.768 146.396 130.457 144.503C132.254 142.6 133.514 140.799 134.238 139.1C132.869 139.656 131.043 139.979 128.76 140.07C126.467 140.052 124.639 139.721 123.273 139.077C124.643 138.521 126.132 137.464 127.741 135.905C129.34 134.238 130.403 132.672 130.93 131.208C129.399 129.924 127.194 129.026 124.313 128.514C121.432 128.003 119.031 127.995 117.111 128.49C118.749 127.256 120.892 126.196 123.541 125.309C126.191 124.423 128.509 124.111 130.495 124.374C128.942 124.073 127.292 123.291 125.545 122.025C123.68 120.661 122.307 119.309 121.427 117.968C122.792 118.612 124.616 118.889 126.899 118.798C129.28 118.59 131.151 118.153 132.511 117.489C132.261 115.875 131.455 114.145 130.094 112.301C128.723 110.348 127.345 108.942 125.961 108.081C127.585 107.939 129.517 108.206 131.758 108.883C133.999 109.559 135.717 110.5 136.914 111.704C135.463 110.086 134.33 107.731 133.514 104.639C132.797 101.429 132.619 98.7719 132.98 96.6678C134.224 98.4134 136.131 100.265 138.702 102.221C141.372 104.06 143.754 105.106 145.849 105.359C145.891 104.592 146.337 103.462 147.188 101.97C148.03 100.369 148.761 99.3776 149.382 98.9961C149.853 99.3912 150.934 99.8966 152.624 100.512C154.305 101.02 155.519 101.186 156.267 101.012C156.94 99.9711 157.407 98.4576 157.67 96.4712C158.041 94.4752 158.012 92.8961 157.583 91.7337C158.261 92.0017 158.957 92.4861 159.673 93.187C160.497 93.8785 161.218 94.6336 161.835 95.4523C161.085 93.1181 160.009 91.4124 158.606 90.3352C157.796 91.0605 157.079 92.2141 156.454 93.7959C155.829 95.3778 155.51 96.7147 155.496 97.8067C154.573 97.233 153.612 96.2262 152.614 94.7864C151.615 93.3466 151.069 92.0855 150.974 91.0029C151.106 92.5185 150.672 94.4109 149.671 96.6801C148.778 98.9399 147.778 100.609 146.673 101.687C146.648 100.162 145.946 98.3695 144.566 96.3086C143.284 94.13 142.01 92.6598 140.744 91.8979C140.278 92.8113 139.326 93.7673 137.886 94.7659C136.446 95.7646 135.244 96.3606 134.279 96.5541C134.627 95.5419 134.617 94.1793 134.249 92.4662C133.989 90.7436 133.551 89.473 132.933 88.6543C132.603 87.3742 131.816 85.8614 130.573 84.1158C129.32 82.2619 128.124 81.0576 126.984 80.5028C128.137 79.9656 129.796 79.6023 131.961 79.4129C134.126 79.2235 135.833 79.4014 137.08 79.9468C137.174 78.5205 136.815 76.9157 136.005 75.1322C135.185 73.2405 134.25 71.9042 133.2 71.1234C134.508 71.118 136.066 71.4726 137.874 72.1871C139.79 72.8921 141.229 73.748 142.189 74.7547C142.429 73.752 142.32 72.5071 141.863 71.02C141.396 69.4246 140.854 68.2176 140.237 67.3989C141.013 67.5491 141.863 67.9111 142.786 68.4849C143.817 69.0491 144.691 69.6818 145.406 70.3827C144.3 68.9524 143.39 67.2866 142.679 65.3854C141.967 63.4842 141.707 61.7617 141.899 60.2177C142.168 62.0485 143.047 63.9897 144.536 66.0411C146.015 67.9842 147.609 69.3719 149.318 70.2041C148.38 68.2136 147.779 65.7028 147.513 62.6717C147.347 59.5229 147.725 56.981 148.646 55.046C149.269 57.1732 150.555 59.4059 152.505 61.7442C154.563 64.073 156.505 65.7029 158.332 66.6339C157.964 64.9208 158.094 62.6732 158.724 59.8911C159.344 57.0008 160.246 54.8492 161.432 53.4365C161.917 55.2484 162.968 57.2836 164.584 59.5421C166.199 61.8005 167.763 63.4636 169.274 64.5312C168.963 63.4676 168.901 61.5096 169.088 58.6571C169.274 55.8047 169.6 52.6674 170.064 49.2452C170.528 45.8231 171.075 42.721 171.704 39.9389C172.333 37.1568 172.989 35.2996 173.671 34.3672C173.441 35.4782 173.557 37.4315 174.02 40.2271C174.591 43.0133 175.294 46.0606 176.129 49.3691C176.964 52.6776 177.829 55.7107 178.725 58.4685C179.621 61.2262 180.382 63.0686 181.008 63.9955C182.547 62.8792 184.029 61.1133 185.453 58.6979C186.977 56.1648 187.767 53.9686 187.822 52.1094C189.136 53.4125 190.187 55.4477 190.974 58.2149C191.762 60.9821 192.128 63.2954 192.072 65.1546C192.66 63.1398 194.108 60.995 196.418 58.7204C198.827 56.328 201.036 54.7712 203.045 54.05C202.016 55.9945 201.593 58.6494 201.779 62.0147C201.955 65.2718 202.507 67.8414 203.435 69.7237C204.168 68.1324 205.507 66.5972 207.45 65.1182C209.501 63.6298 211.388 62.7557 213.111 62.4959C211.906 63.6921 210.745 65.3754 209.626 67.5458C208.615 69.7068 208.077 71.6628 208.012 73.4138C208.873 72.0295 210.18 70.7698 211.935 69.6345C213.789 68.3815 215.533 67.7381 217.166 67.7042C215.707 68.4864 214.282 69.6474 212.889 71.1872C211.497 72.7271 210.596 74.2785 210.188 75.8414C211.914 74.3814 214.206 73.1446 217.063 72.1311C220.027 71.1082 222.611 70.7185 224.814 70.9621C222.687 71.5845 220.464 72.9789 218.144 75.1453C215.816 77.2034 214.308 79.2988 213.622 81.4314C214.686 81.1202 216.107 81.1594 217.887 81.5491C219.656 81.8306 221.008 82.3124 221.94 82.9944C220.886 83.4138 219.707 84.2805 218.404 85.5944C217.091 86.8001 216.261 87.909 215.914 88.9212C217.19 89.7913 218.88 90.407 220.984 90.7683C223.088 91.1296 224.888 91.1357 226.385 90.7866C225.279 91.8651 223.79 92.9226 221.917 93.9591C220.035 94.8873 218.332 95.3636 216.807 95.3879C218.43 95.2459 220.44 95.779 222.837 96.9874C225.233 98.1958 226.976 99.4069 228.063 100.621C226.449 100.871 224.567 101.799 222.417 103.405C220.257 104.903 218.747 106.345 217.886 107.729C219.402 107.596 221.294 108.031 223.563 109.032C225.833 110.033 227.457 111.146 228.437 112.369C226.921 112.502 225.138 113.312 223.086 114.8C221.134 116.171 219.718 117.44 218.838 118.608C220.368 119.892 222.544 121.066 225.364 122.128C228.184 123.19 230.563 123.582 232.502 123.303C231.454 125.031 229.574 126.614 226.864 128.051C224.153 129.488 221.819 130.237 219.861 130.3C221.636 131.89 224.15 133.197 227.403 134.221C230.755 135.128 233.603 135.26 235.947 134.619C234.239 136.296 231.863 137.812 228.818 139.17C225.773 140.527 223.06 141.31 220.679 141.518C220.665 142.61 220.941 143.895 221.507 145.372C222.181 146.841 222.934 147.975 223.768 148.774C222.648 148.436 221.445 147.778 220.159 146.799C218.982 145.812 218.129 144.795 217.602 143.751C217.715 145.05 217.252 146.617 216.213 148.454C215.292 150.389 214.382 151.832 213.483 152.783C213.261 151.493 212.578 149.917 211.433 148.054C210.298 146.299 209.106 145.148 207.859 144.603C208.383 146.848 208.186 149.592 207.27 152.836C206.472 156.178 205.327 158.678 203.836 160.336C203.745 158.053 203.016 155.335 201.65 152.182C200.293 149.137 198.736 146.928 196.979 145.555C197.14 147.395 196.671 149.509 195.571 151.896C194.588 154.382 193.5 156.277 192.305 157.581C192.37 155.83 191.964 153.684 191.087 151.143C190.22 148.71 189.129 146.842 187.815 145.539C187.137 145.271 186.41 145.062 185.633 144.911C185.709 145.777 185.928 146.413 186.291 146.817C184.874 146.832 183.193 146.325 181.249 145.295C180.924 145.323 180.658 145.401 180.451 145.528C180.658 145.401 180.811 145.279 180.91 145.161C180.095 144.578 179.453 144.089 178.982 143.693C178.936 145.661 179.356 147.969 180.242 150.619C181.246 153.367 182.567 155.379 184.206 156.653C182.3 156.057 180.277 154.761 178.139 152.766C176.119 150.871 174.753 148.972 174.041 147.071C174.88 149.179 175.122 151.94 174.766 155.352C174.419 158.873 173.682 161.665 172.553 163.727C171.912 161.383 170.327 158.849 167.798 156.125C165.377 153.392 161.719 151.476 156.823 150.377ZM169.938 90.8164C168.865 91.0194 167.434 90.8719 165.645 90.3739C167.595 92.7122 168.624 95.131 168.734 97.6303C169.247 97.2581 169.894 96.5471 170.674 95.497C171.446 94.3387 172.01 93.3076 172.367 92.4037C170.725 92.3293 169.338 92.0688 168.208 91.6222C169.507 91.5086 170.95 91.1642 172.536 90.5891L172.345 90.2786L172.684 90.4125C171.915 87.8618 170.987 85.9796 169.899 84.7658C169.631 85.4437 169.451 86.4958 169.357 87.922C169.363 89.2305 169.556 90.1953 169.938 90.8164ZM163.95 89.7041C164.252 90.6594 164.302 91.8549 164.1 93.2906C163.899 94.7263 163.516 95.9597 162.951 96.9908C163.333 97.6119 163.606 98.2425 163.771 98.8826C164.326 97.7432 164.636 96.298 164.701 94.547C164.874 92.7866 164.737 91.2169 164.289 89.838L163.95 89.7041ZM173.382 128.312C172.972 127.366 172.764 126.239 172.759 124.93C172.744 123.514 172.915 122.353 173.272 121.449C173.565 122.296 174.142 123.282 175.004 124.407C175.974 125.522 176.857 126.263 177.652 126.629C177.831 126.177 177.824 125.469 177.63 124.504C177.535 123.422 177.361 122.673 177.106 122.259C178.052 121.849 179.302 121.794 180.855 122.095C179.843 121.747 178.817 121.237 177.776 120.564C176.844 119.882 176.128 119.182 175.629 118.462C176.542 118.927 177.707 119.152 179.124 119.138C180.541 119.123 181.722 118.91 182.668 118.5C182.296 117.987 181.648 117.444 180.726 116.87C179.911 116.287 179.179 116.024 178.529 116.081C178.934 115.718 179.447 115.346 180.068 114.964C179.832 114.767 179.646 114.51 179.51 114.195C179.067 114.125 178.679 114.05 178.345 113.97C178.345 113.97 178.611 113.892 179.142 113.736C179.015 113.529 178.815 113.111 178.542 112.48C178.175 113.276 177.999 114.382 178.014 115.799C178.019 117.107 178.222 118.18 178.623 119.018C177.709 118.552 176.876 117.753 176.122 116.619C175.477 115.475 175.057 114.421 174.864 113.456C174.506 114.36 174.331 115.466 174.336 116.775C174.341 118.083 174.549 119.211 174.959 120.156C172.986 118.802 171.787 116.943 171.362 114.581C171.085 115.15 170.836 116.045 170.615 117.264C170.494 118.365 170.515 119.236 170.68 119.876C170.021 119.825 169.127 119.576 167.997 119.129C166.966 118.565 166.264 118.026 165.892 117.514C166.067 118.262 166.467 119.1 167.094 120.026C167.828 120.944 168.54 121.591 169.227 121.967C168.479 122.141 167.495 122.118 166.276 121.898C165.165 121.668 164.32 121.36 163.741 120.974C164.211 121.369 164.845 121.75 165.64 122.117C166.544 122.474 167.316 122.57 167.956 122.405C167.561 122.876 167.048 123.248 166.418 123.522C167.284 123.446 167.938 123.443 168.381 123.514C168.094 123.975 167.889 124.756 167.768 125.858C167.745 126.842 167.811 127.599 167.966 128.131C168.686 127.632 169.27 126.817 169.716 125.687C170.163 124.558 170.407 123.609 170.449 122.842C171.047 123.444 171.506 124.331 171.827 125.503C172.247 126.557 172.765 127.493 173.382 128.312ZM231.052 136.52C228.826 137.26 226.174 137.492 223.095 137.216C220.008 136.832 217.433 136.075 215.37 134.947C217.681 135.181 220.329 134.895 223.313 134.088C226.296 133.282 228.706 132.144 230.541 130.674C229.058 129.931 227.215 129.438 225.012 129.194C222.799 128.843 220.959 129.004 219.491 129.677C220.497 128.717 221.907 127.993 223.719 127.508C221.408 127.274 219.56 126.726 218.176 125.866C219.936 126.039 221.998 125.913 224.36 125.488C226.713 124.955 228.546 124.086 229.859 122.88C228.696 123.309 227.289 123.432 225.637 123.249C223.985 123.067 222.692 122.634 221.76 121.952C222.97 122.065 224.318 121.892 225.805 121.435C227.401 120.968 228.657 120.367 229.575 119.632C227.221 120.166 224.378 120.087 221.046 119.397C217.713 118.707 215.163 117.621 213.398 116.139C215.808 116.255 218.54 115.689 221.594 114.44C224.756 113.182 227.132 111.665 228.722 109.89C226.886 108.85 224.523 108.021 221.632 107.401C218.85 106.772 216.445 106.71 214.417 107.214C215.532 106.244 216.922 105.304 218.588 104.395C220.254 103.486 221.943 102.847 223.656 102.479C220.587 102.311 218.12 101.545 216.256 100.181C218.007 100.246 219.995 99.9086 222.221 99.1684C224.438 98.32 226.207 97.3471 227.529 96.2497C225.312 97.0981 222.547 97.2855 219.233 96.8118C216.018 96.2205 213.429 95.3016 211.466 94.0554C213.796 94.506 216.497 94.2151 219.57 93.1827C222.752 92.1408 225.196 90.7815 226.904 89.105C225.628 88.2349 223.884 87.6239 221.671 87.2721C219.459 86.9202 217.555 86.9777 215.959 87.4445C216.966 86.4838 218.371 85.7064 220.173 85.1124C216.464 85.1097 213.456 84.3911 211.149 82.9567C213.38 83.5251 215.993 83.4601 218.986 82.7619C221.979 82.0638 224.334 80.9305 226.051 79.3622C224.493 77.7533 222.155 76.5943 219.039 75.8852C215.913 75.0678 213.263 74.6997 211.088 74.7809C212.471 73.1328 214.572 71.5854 217.391 70.1389C220.308 68.5747 222.854 67.752 225.029 67.6709C223.96 66.6736 222.354 65.7778 220.212 64.9834C218.07 64.1891 216.241 63.8582 214.726 63.9908C215.596 62.7148 217.021 61.5538 219.002 60.5078C220.983 59.4619 222.727 58.8184 224.233 58.5776C222.619 58.8279 220.632 58.5654 218.274 57.79C215.915 57.0146 214.143 56.0789 212.956 54.9828C214.58 54.8407 216.49 54.2372 218.688 53.1723C220.994 52.0979 222.577 50.8686 223.437 49.4843C222.929 48.6562 221.806 47.6636 220.068 46.5067C218.429 45.232 217.109 44.4748 216.106 44.2353C216.454 43.2232 217.329 42.0013 218.731 40.5696C220.231 39.0203 221.459 38.0947 222.415 37.793C222.546 36.7998 222.373 35.4513 221.897 33.7477C221.411 31.9358 220.806 30.6253 220.08 29.8161C221.026 29.4061 222.429 29.2288 224.288 29.2843C226.138 29.2316 227.52 29.4379 228.433 29.9034C228.828 29.4325 229.225 28.3615 229.624 26.6904C230.132 25.0097 230.571 23.1715 230.942 21.1756C231.303 19.0714 231.575 17.1932 231.758 15.541C231.931 13.7805 231.935 12.5803 231.77 11.9402C232.142 12.4531 232.67 13.4977 233.353 15.0742C234.145 16.6411 234.896 18.3752 235.608 20.2764C236.428 22.1682 237.076 23.9659 237.553 25.6695C238.019 27.2649 238.227 28.3921 238.176 29.0511C239.097 27.116 239.602 24.7812 239.69 22.0464C239.768 19.2034 239.339 16.7867 238.401 14.7962C239.546 16.6595 240.458 18.9795 241.137 21.7562C241.807 24.4246 241.848 26.7663 241.261 28.7811C242.564 27.4672 243.594 25.5227 244.35 22.9477C245.215 20.3632 245.567 18.1507 245.406 16.3104C246.917 17.3781 248.323 19.1095 249.624 21.5046C250.924 23.8997 251.6 26.0222 251.653 27.8719C252.5 27.5797 253.804 27.5201 255.565 27.6933C257.424 27.7489 258.756 28.0141 259.561 28.4891C258.968 29.1954 258.364 30.3936 257.748 32.0837C257.241 33.7643 257.03 35.0918 257.115 36.0661C258.306 35.9619 259.746 36.2177 261.436 36.8334C263.127 37.4491 264.388 38.1568 265.222 38.9565C264.031 39.0607 262.657 39.5627 261.099 40.4625C259.533 41.2541 258.413 42.1702 257.74 43.2108C259.058 43.3136 260.748 43.9293 262.81 45.0579C264.863 46.0782 266.321 47.1506 267.183 48.2751C265.902 48.6053 264.291 49.5098 262.348 50.9888C260.503 52.3501 259.308 53.6545 258.763 54.9021C259.272 55.7303 260.331 56.6193 261.942 57.5692C263.651 58.4015 264.997 58.8291 265.981 58.8521C265.515 59.7655 264.572 60.8297 263.151 62.0448C261.721 63.1517 260.523 63.8019 259.559 63.9954C260.962 65.0725 262.887 65.8858 265.335 66.4352C267.882 66.8669 270.002 66.7905 271.696 66.2059C270.384 67.4116 268.565 68.4433 266.24 69.3012C263.916 70.1591 261.878 70.5555 260.127 70.4906C261.756 71.657 263.908 72.5596 266.581 73.1983C269.354 73.7193 271.71 73.8405 273.649 73.5617C272.238 74.8851 270.217 76.0982 267.586 77.201C265.064 78.2943 262.824 78.8721 260.866 78.9343C262.184 79.0372 263.81 79.5494 265.745 80.4709C267.68 81.3924 269.128 82.3566 270.089 83.3633C268.809 83.6935 267.242 84.4851 265.388 85.7381C263.642 86.9816 262.438 88.1778 261.775 89.3266C263.723 89.1561 266.044 89.4985 268.737 90.3538C271.42 91.1007 273.473 92.121 274.895 93.4147C273.036 93.3592 270.859 94.0405 268.365 95.4586C265.871 96.8766 263.978 98.2968 262.684 99.7189C264.821 99.2047 267.452 99.3563 270.578 100.174C273.812 100.982 276.203 102.136 277.753 103.637C275.559 103.501 272.999 104.161 270.072 105.617C267.136 106.965 264.976 108.463 263.593 110.111C265.557 111.358 268.078 112.119 271.156 112.395C274.333 112.553 276.976 112.213 279.084 111.374C276.529 113.343 273.318 114.66 269.449 115.326C272.979 115.78 275.957 116.774 278.382 118.308C276.297 118.163 273.831 118.651 270.983 119.773C268.245 120.885 266.179 122.211 264.787 123.751C265.973 124.847 267.687 125.734 269.928 126.41C272.277 127.077 274.268 127.394 275.901 127.36C274.923 128.646 273.34 129.875 271.152 131.048C269.072 132.212 267.215 132.811 265.582 132.844C265.667 133.819 266.209 135.026 267.208 136.465C268.197 137.797 269.099 138.754 269.914 139.338C269.095 139.955 267.815 140.285 266.073 140.328C264.44 140.362 263.117 140.205 262.105 139.857C261.738 140.653 261.429 142.098 261.175 144.193C260.932 146.396 260.702 148.761 260.487 151.289C260.39 153.915 260.377 156.262 260.449 158.328C260.638 160.493 260.879 161.999 261.171 162.846C260.672 162.126 260.111 160.703 259.489 158.575C258.876 156.556 258.239 154.267 257.579 151.707C257.036 149.245 256.616 146.937 256.318 144.781C256.129 142.616 256.109 141.145 256.259 140.369C255.084 141.889 254.068 143.996 253.213 146.689C252.367 149.49 252.138 151.856 252.525 153.785C251.102 152.491 249.732 150.539 248.412 147.927C247.211 145.414 246.633 143.174 246.679 141.207C245.79 142.266 245.096 143.69 244.598 145.479C244.11 147.376 243.977 148.97 244.199 150.259C243.149 149.479 242.218 148.196 241.408 146.413C240.705 144.62 240.297 143.074 240.184 141.775C239.304 142.943 238.679 144.525 238.308 146.521C237.947 148.625 237.882 150.376 238.113 151.773C237.143 150.658 236.062 148.899 234.87 146.494C233.796 144.188 232.523 140.864 231.052 136.52ZM308.007 136.659C307.442 137.69 306.292 138.882 304.556 140.234C302.938 141.684 301.597 142.565 300.533 142.876C300.33 141.803 299.706 140.276 298.66 138.295C297.722 136.305 296.787 134.968 295.854 134.286C295.013 135.887 293.463 137.495 291.204 139.111C289.064 140.826 287.137 141.867 285.424 142.235C286.157 140.644 286.622 138.476 286.818 135.732C287.014 132.987 286.766 130.773 286.073 129.088C285.283 130.03 284.158 130.892 282.7 131.674C281.232 132.348 279.902 132.737 278.711 132.841C279.52 132.116 280.238 130.962 280.863 129.38C281.488 127.799 281.749 126.412 281.644 125.221C280.144 126.771 277.911 128.057 274.946 129.08C271.972 129.995 269.388 130.384 267.195 130.249C269.058 129.104 270.982 127.409 272.967 125.163C275.051 122.799 276.323 120.506 276.783 118.284C275.752 117.719 274.307 117.41 272.448 117.354C270.588 117.299 269.127 117.426 268.063 117.738C268.402 116.617 269.168 115.405 270.363 114.1C271.549 112.688 272.664 111.717 273.708 111.19C271.872 110.151 269.488 109.705 266.555 109.852C263.614 109.891 261.202 110.375 259.319 111.303C260.476 109.566 262.424 108.141 265.163 107.029C267.784 105.818 270.118 105.068 272.166 104.78C271.087 103.674 269.404 102.513 267.116 101.295C264.936 100.067 263.079 99.4117 261.544 99.3278C262.296 97.953 263.698 96.5214 265.75 95.0329C267.792 93.4362 269.556 92.4092 271.043 91.9518C268.652 92.0519 265.997 91.6297 263.079 90.6852C260.042 89.6418 257.587 88.384 255.713 86.9118C257.973 87.8049 260.717 88.0011 263.945 87.5005C267.174 86.9999 269.765 86.0642 271.717 84.6934C271.632 83.7192 271.017 82.3004 269.872 80.4371C268.836 78.5643 267.851 77.2869 266.919 76.6049C267.62 75.889 268.966 75.0623 270.956 74.1246C272.947 73.1868 274.493 72.7789 275.594 72.9007C274.761 72.1009 273.934 70.7552 273.114 68.8635C272.294 66.9718 271.886 65.4258 271.89 64.2255C272.931 64.898 274.435 65.2573 276.402 65.3033C278.478 65.3399 280.102 65.1978 281.274 64.8772C281.711 63.639 281.78 61.9422 281.483 59.7866C281.185 57.631 280.61 56.0451 279.757 55.0288C281.057 54.9152 282.723 55.2602 284.757 56.064C286.791 56.8678 288.234 57.7779 289.086 58.7941C288.469 57.9754 287.986 56.8178 287.637 55.3212C287.288 53.8246 287.174 52.5256 287.296 51.4241C287.715 52.4782 288.415 53.6169 289.395 54.8402C290.473 55.9457 291.518 56.6724 292.531 57.0201C291.993 55.8672 291.807 54.3564 291.97 52.4877C292.134 50.619 292.498 49.1691 293.063 48.138C293.383 49.3098 294.201 50.5473 295.514 51.8504C296.828 53.1535 298.104 54.0236 299.342 54.4607C300.391 52.7327 301.004 50.3884 301.182 47.4277C301.359 44.4669 300.983 42.0455 300.055 40.1632C301.567 41.2309 302.963 42.854 304.244 45.0326C305.526 47.2112 306.36 49.2653 306.747 51.1949C306.586 49.3546 306.776 47.1564 307.315 44.6003C307.954 41.9265 308.92 39.8785 310.214 38.4563C310.286 40.5226 310.932 42.9204 312.152 45.6497C313.363 48.2708 314.689 50.3364 316.131 51.8466C317.246 50.8764 318.372 49.4143 319.51 47.4603C320.747 45.3887 321.407 43.5856 321.491 42.0511C322.668 43.0389 323.735 44.6363 324.692 46.8434C325.649 49.0504 326.08 50.867 325.987 52.2932C326.551 51.2621 327.593 50.0802 329.113 48.7473C330.741 47.405 332.141 46.5735 333.312 46.2528C333.2 47.4625 333.505 49.0721 334.226 51.0816C335.046 52.9733 335.872 54.319 336.706 55.1188C337.6 55.3678 339.062 55.2399 341.09 54.7352C343.217 54.1128 344.636 53.4978 345.347 52.8902C345.855 53.7183 346.362 55.1466 346.867 57.175C347.372 59.2034 347.499 60.6648 347.25 61.5593C348.056 62.0342 349.506 62.3983 351.6 62.6513C353.803 62.8949 355.323 62.8164 356.161 62.4159C356.562 63.2535 356.586 64.7785 356.234 66.991C355.981 69.0857 355.563 70.5403 354.98 71.3549C356.151 71.0342 357.863 71.2663 360.113 72.0512C362.354 72.7278 363.94 73.4071 364.873 74.0891C363.837 74.7251 362.701 76.0789 361.465 78.1506C360.327 80.1045 359.647 81.6911 359.427 82.9103C361.174 84.1755 363.61 85.2168 366.736 86.0341C369.852 86.7432 372.479 86.8407 374.615 86.3265C373.242 88.0829 371.15 89.7385 368.341 91.2932C365.532 92.848 363.04 93.6659 360.866 93.7471C361.737 94.9799 363.046 96.2288 364.793 97.4941C366.531 98.651 368.171 99.3256 369.715 99.5178C368.228 99.9751 366.442 100.131 364.357 99.9866C362.262 99.7335 360.527 99.2308 359.152 98.4784C359.276 99.8857 358.94 101.66 358.146 103.802C358.937 105.369 359.38 106.694 359.475 107.777C361.433 107.714 363.66 108.229 366.155 109.319C368.641 110.302 370.595 111.44 372.017 112.733C370.209 112.019 367.912 111.947 365.126 112.518C362.438 112.972 360.271 113.761 358.625 114.887C358.846 116.176 359.57 117.586 360.794 119.115C362.009 120.536 363.137 121.582 364.178 122.255C363.006 122.576 361.422 122.551 359.426 122.18C357.539 121.8 356.124 121.214 355.182 120.424C357.056 121.896 358.829 124.086 360.502 126.994C362.283 129.893 363.223 132.538 363.323 134.929C361.952 132.976 359.824 131.09 356.938 129.27C354.051 127.45 351.399 126.427 348.979 126.203C348.373 128.001 348.148 130.42 348.305 133.461C348.561 136.384 349.035 138.688 349.728 140.372C347.85 140.1 345.689 139.089 343.245 137.34C340.801 135.59 339.125 133.882 338.215 132.217C337.647 134.448 337.712 137.06 338.41 140.053C339.226 143.145 340.364 145.555 341.824 147.281C340.421 146.204 339.142 144.68 337.988 142.708C336.942 140.727 336.167 138.723 335.662 136.694C335.536 138.996 335.052 140.947 334.21 142.548C333.88 141.268 333.157 139.859 332.041 138.32C331.033 136.772 329.959 135.721 328.82 135.166C328.943 136.573 328.661 138.343 327.975 140.476C327.407 142.707 326.683 144.406 325.803 145.574C325.61 144.609 325.023 143.515 324.044 142.292C323.064 141.069 321.326 139.912 318.831 138.821C316.345 137.839 312.737 137.118 308.007 136.659ZM314.013 80.0113C314.08 80.7691 314.49 81.7149 315.243 82.8489C315.987 83.8746 316.703 84.5756 317.391 84.9517C318.101 84.3442 318.611 83.3178 318.921 81.8726C318.587 81.7928 318.307 81.7082 318.081 81.6189C318.18 81.5012 318.549 81.3598 319.189 81.1947C319.161 80.8699 319.191 80.5946 319.28 80.3686C317.52 80.1954 316.054 80.2691 314.882 80.5898C315.446 79.5587 316.399 78.6027 317.74 77.7218C319.071 76.7326 320.328 76.1319 321.509 75.9194C320.634 75.8869 319.561 76.0899 318.29 76.5283C317.128 76.9572 316.191 77.4755 315.481 78.0831C315.73 77.1886 316.249 76.2705 317.04 75.3287C317.938 74.3775 318.752 73.7063 319.481 73.3152C318.94 73.3626 318.26 73.6948 317.442 74.3118C316.623 74.9289 316.075 75.5222 315.797 76.0919C315.797 76.0919 315.661 75.7766 315.387 75.146C315.294 76.5723 315.015 77.7421 314.549 78.6554C314.572 77.6717 314.306 76.4951 313.749 75.1257C313.193 73.7563 312.557 72.7211 311.841 72.0202C311.682 72.6886 311.762 73.6088 312.083 74.7806C312.404 75.9525 312.809 76.8442 313.299 77.4558C312.315 77.4328 311.204 77.2028 309.966 76.7657C311.134 77.6453 311.977 78.5532 312.495 79.4896C311.619 79.4572 310.546 79.6601 309.276 80.0985C308.104 80.4192 307.266 80.8197 306.763 81.3001C307.314 81.361 308.105 81.6736 309.136 82.2379C309.136 82.2379 309.279 82.0072 309.566 81.5457C309.594 81.8705 309.682 82.2446 309.828 82.6682C310.073 82.974 310.313 83.2257 310.548 83.4233C310.548 83.4233 310.386 83.4375 310.061 83.4659C310.57 84.294 311.065 84.9598 311.545 85.4632C311.479 84.7054 311.723 83.7568 312.278 82.6175C312.931 81.3604 313.51 80.4917 314.013 80.0113ZM322.952 81.1927C322.157 80.826 321.262 80.577 320.269 80.4457C320.387 80.5445 320.509 80.6974 320.636 80.9045C321.502 80.8287 322.274 80.9248 322.952 81.1927ZM308.297 85.7473C308.288 85.639 308.264 85.3684 308.226 84.9354C308.226 84.9354 308.25 85.206 308.297 85.7473ZM349.41 99.3308C349.603 100.296 349.491 101.505 349.073 102.96C348.763 104.405 348.326 105.643 347.761 106.674C348.035 107.305 348.245 107.832 348.391 108.256C349.694 106.942 350.935 104.924 352.115 102.203C351.244 100.97 350.342 100.013 349.41 99.3308ZM333.992 102.643C334.905 103.109 335.753 104.071 336.535 105.53C337.425 106.979 337.967 108.186 338.161 109.151C339.078 108.416 340.061 107.184 341.11 105.456C342.149 103.62 342.617 102.107 342.513 100.916C343.082 101.193 343.72 101.628 344.427 102.221C343.791 101.186 343.124 100.426 342.427 99.9417C342.414 101.034 341.937 102.439 340.996 104.157C340.056 105.876 339.117 106.994 338.181 107.513C337.87 106.449 337.107 105.207 335.892 103.786C334.667 102.257 333.598 101.26 332.685 100.794C331.904 101.844 331.373 103.254 331.091 105.024C330.81 106.794 330.829 108.265 331.15 109.437C329.61 108.044 328.604 105.896 328.132 102.992C327.968 104.861 327.446 106.379 326.567 107.547C328.314 108.812 329.851 109.55 331.178 109.761C331.889 109.154 332.503 108.064 333.019 106.492C333.645 104.91 333.969 103.627 333.992 102.643ZM317.259 102.144C317.56 103.099 317.723 104.339 317.748 105.864C317.88 107.38 317.787 108.806 317.467 110.143C318.085 110.962 318.81 111.771 319.643 112.571C320.576 113.253 321.322 113.678 321.882 113.847C321.453 112.685 321.365 111.056 321.618 108.962C321.98 106.857 322.497 105.285 323.169 104.245C323.697 105.289 324.775 106.395 326.404 107.561C326.545 106.676 326.293 105.662 325.647 104.519C324.993 103.267 324.307 102.291 323.591 101.59C323.078 101.962 322.491 102.722 321.827 103.871C321.155 104.912 320.847 105.757 320.904 106.406C320.226 106.138 319.465 105.55 318.622 104.642C317.77 103.626 317.315 102.793 317.259 102.144ZM312.139 114.7C312.2 114.149 312.468 113.471 312.943 112.666C313.526 111.851 314.114 111.091 314.707 110.384L314.516 110.074C313.143 111.83 312.35 113.372 312.139 114.7Z" fill="#090909"/>
</svg>
