<svg width="109" height="23" viewBox="0 0 109 23" fill="none" xmlns="http://www.w3.org/2000/svg">
<path d="M0.265625 22V1.17969H7.72656L11.6719 11.1797C11.8932 11.7917 12.0951 12.4167 12.2773 13.0547C12.4727 13.6797 12.6549 14.3047 12.8242 14.9297C13.0065 15.5547 13.1758 16.1667 13.332 16.7656C13.5013 17.3516 13.6641 17.9115 13.8203 18.4453H12.9023C13.0716 17.9115 13.2344 17.3516 13.3906 16.7656C13.5469 16.1797 13.7096 15.5742 13.8789 14.9492C14.0612 14.3112 14.2435 13.6797 14.4258 13.0547C14.6211 12.4167 14.8229 11.7917 15.0312 11.1797L18.957 1.17969H26.418V22H21.5352V13.25C21.5352 12.3516 21.5352 11.4922 21.5352 10.6719C21.5482 9.85156 21.5612 9.05078 21.5742 8.26953C21.5872 7.47526 21.6003 6.6875 21.6133 5.90625C21.6263 5.125 21.6393 4.33724 21.6523 3.54297H22.3359C21.9844 4.59766 21.6328 5.65885 21.2812 6.72656C20.9297 7.78125 20.5651 8.84896 20.1875 9.92969C19.8229 11.0104 19.4258 12.1107 18.9961 13.2305L15.4219 22H11.2617L7.64844 13.2305C7.21875 12.0977 6.80859 10.9974 6.41797 9.92969C6.04036 8.84896 5.67578 7.78125 5.32422 6.72656C4.97266 5.65885 4.62109 4.59766 4.26953 3.54297H5.03125C5.04427 4.32422 5.05078 5.10547 5.05078 5.88672C5.0638 6.65495 5.07682 7.4362 5.08984 8.23047C5.10286 9.02474 5.11589 9.83854 5.12891 10.6719C5.14193 11.4922 5.14844 12.3516 5.14844 13.25V22H0.265625ZM37.2383 22.3516C35.8581 22.3516 34.6276 22.1172 33.5469 21.6484C32.4792 21.1797 31.6328 20.4831 31.0078 19.5586C30.3828 18.6341 30.0703 17.4818 30.0703 16.1016C30.0703 14.9167 30.2917 13.9401 30.7344 13.1719C31.1901 12.4036 31.7956 11.7917 32.5508 11.3359C33.319 10.8672 34.1914 10.5156 35.168 10.2812C36.1445 10.0339 37.1602 9.85807 38.2148 9.75391C39.4909 9.59766 40.5065 9.46745 41.2617 9.36328C42.0169 9.25911 42.5573 9.09635 42.8828 8.875C43.2214 8.65365 43.3906 8.30859 43.3906 7.83984V7.68359C43.3906 7.07161 43.2409 6.53776 42.9414 6.08203C42.6419 5.6263 42.2122 5.26823 41.6523 5.00781C41.0924 4.7474 40.4154 4.61719 39.6211 4.61719C38.8138 4.61719 38.1042 4.7474 37.4922 5.00781C36.8932 5.26823 36.4115 5.61979 36.0469 6.0625C35.6823 6.50521 35.4674 7.01302 35.4023 7.58594L30.6758 7.42969C30.806 6.0625 31.2552 4.88411 32.0234 3.89453C32.7917 2.90495 33.8268 2.13672 35.1289 1.58984C36.431 1.04297 37.9544 0.769531 39.6992 0.769531C40.9883 0.769531 42.1602 0.925781 43.2148 1.23828C44.2695 1.55078 45.1745 2.00651 45.9297 2.60547C46.6979 3.20443 47.2839 3.94661 47.6875 4.83203C48.1042 5.70443 48.3125 6.70703 48.3125 7.83984V22H43.4688V19.0703H43.3516C43.0391 19.6823 42.6159 20.2357 42.082 20.7305C41.5612 21.2253 40.9036 21.6224 40.1094 21.9219C39.3151 22.2083 38.3581 22.3516 37.2383 22.3516ZM38.4688 18.6797C39.5365 18.6797 40.4349 18.4844 41.1641 18.0938C41.9062 17.7031 42.4661 17.1823 42.8438 16.5312C43.2214 15.8672 43.4102 15.138 43.4102 14.3438V12.0391C43.2539 12.1432 43.0195 12.2409 42.707 12.332C42.3945 12.4232 42.0234 12.5143 41.5938 12.6055C41.1771 12.6966 40.7279 12.7812 40.2461 12.8594C39.7773 12.9245 39.3021 12.9961 38.8203 13.0742C38.1042 13.1654 37.4466 13.3281 36.8477 13.5625C36.2617 13.7969 35.7865 14.1159 35.4219 14.5195C35.0703 14.9102 34.8945 15.4245 34.8945 16.0625C34.8945 16.6094 35.0443 17.0781 35.3438 17.4688C35.6432 17.8594 36.0599 18.1589 36.5938 18.3672C37.1276 18.5755 37.7526 18.6797 38.4688 18.6797ZM67.2383 1.17969V5.41797H57.8047V22H52.8438V1.17969H67.2383ZM76.2617 22.3516C74.8815 22.3516 73.651 22.1172 72.5703 21.6484C71.5026 21.1797 70.6562 20.4831 70.0312 19.5586C69.4062 18.6341 69.0938 17.4818 69.0938 16.1016C69.0938 14.9167 69.3151 13.9401 69.7578 13.1719C70.2135 12.4036 70.819 11.7917 71.5742 11.3359C72.3424 10.8672 73.2148 10.5156 74.1914 10.2812C75.168 10.0339 76.1836 9.85807 77.2383 9.75391C78.5143 9.59766 79.5299 9.46745 80.2852 9.36328C81.0404 9.25911 81.5807 9.09635 81.9062 8.875C82.2448 8.65365 82.4141 8.30859 82.4141 7.83984V7.68359C82.4141 7.07161 82.2643 6.53776 81.9648 6.08203C81.6654 5.6263 81.2357 5.26823 80.6758 5.00781C80.1159 4.7474 79.4388 4.61719 78.6445 4.61719C77.8372 4.61719 77.1276 4.7474 76.5156 5.00781C75.9167 5.26823 75.4349 5.61979 75.0703 6.0625C74.7057 6.50521 74.4909 7.01302 74.4258 7.58594L69.6992 7.42969C69.8294 6.0625 70.2786 4.88411 71.0469 3.89453C71.8151 2.90495 72.8503 2.13672 74.1523 1.58984C75.4544 1.04297 76.9779 0.769531 78.7227 0.769531C80.0117 0.769531 81.1836 0.925781 82.2383 1.23828C83.293 1.55078 84.1979 2.00651 84.9531 2.60547C85.7214 3.20443 86.3073 3.94661 86.7109 4.83203C87.1276 5.70443 87.3359 6.70703 87.3359 7.83984V22H82.4922V19.0703H82.375C82.0625 19.6823 81.6393 20.2357 81.1055 20.7305C80.5846 21.2253 79.9271 21.6224 79.1328 21.9219C78.3385 22.2083 77.3815 22.3516 76.2617 22.3516ZM77.4922 18.6797C78.5599 18.6797 79.4583 18.4844 80.1875 18.0938C80.9297 17.7031 81.4896 17.1823 81.8672 16.5312C82.2448 15.8672 82.4336 15.138 82.4336 14.3438V12.0391C82.2773 12.1432 82.043 12.2409 81.7305 12.332C81.418 12.4232 81.0469 12.5143 80.6172 12.6055C80.2005 12.6966 79.7513 12.7812 79.2695 12.8594C78.8008 12.9245 78.3255 12.9961 77.8438 13.0742C77.1276 13.1654 76.4701 13.3281 75.8711 13.5625C75.2852 13.7969 74.8099 14.1159 74.4453 14.5195C74.0938 14.9102 73.918 15.4245 73.918 16.0625C73.918 16.6094 74.0677 17.0781 74.3672 17.4688C74.6667 17.8594 75.0833 18.1589 75.6172 18.3672C76.151 18.5755 76.776 18.6797 77.4922 18.6797ZM99.3867 22.3125C97.6289 22.3125 96.112 22.013 94.8359 21.4141C93.5599 20.8151 92.5768 20.0078 91.8867 18.9922C91.2096 17.9766 90.8581 16.8438 90.832 15.5938H95.6758C95.7018 16.4401 96.0534 17.1172 96.7305 17.625C97.4076 18.1198 98.2799 18.3672 99.3477 18.3672C100.428 18.3672 101.307 18.1198 101.984 17.625C102.661 17.1302 103 16.4922 103 15.7109C103 14.8906 102.635 14.2266 101.906 13.7188C101.19 13.1979 100.214 12.9375 98.9766 12.9375H97.3359V9.75391H98.9766C100.044 9.75391 100.91 9.51302 101.574 9.03125C102.238 8.54948 102.57 7.91146 102.57 7.11719C102.57 6.36198 102.277 5.75 101.691 5.28125C101.118 4.79948 100.35 4.55859 99.3867 4.55859C98.4232 4.55859 97.6159 4.79297 96.9648 5.26172C96.3268 5.73047 95.9948 6.36849 95.9688 7.17578H91.2812C91.2943 5.92578 91.6458 4.81901 92.3359 3.85547C93.026 2.89193 93.9831 2.13672 95.207 1.58984C96.444 1.04297 97.8503 0.769531 99.4258 0.769531C100.975 0.769531 102.336 1.02995 103.508 1.55078C104.693 2.05859 105.611 2.76172 106.262 3.66016C106.926 4.54557 107.258 5.54167 107.258 6.64844C107.258 7.84635 106.867 8.84245 106.086 9.63672C105.305 10.418 104.283 10.9128 103.02 11.1211V11.1797C104.647 11.362 105.891 11.9089 106.75 12.8203C107.609 13.7318 108.039 14.8255 108.039 16.1016C108.039 17.2995 107.668 18.3672 106.926 19.3047C106.197 20.2422 105.181 20.9779 103.879 21.5117C102.577 22.0456 101.079 22.3125 99.3867 22.3125Z" fill="#090909"/>
</svg>
