<svg width="49" height="50" viewBox="0 0 49 50" fill="none" xmlns="http://www.w3.org/2000/svg">
<g filter="url(#filter0_bi_908_31428)">
<path opacity="0.8" fill-rule="evenodd" clip-rule="evenodd" d="M36.2199 8.04602C34.5464 7.74726 32.7416 7.60232 30.6743 8.07475C29.5211 8.33828 28.3726 8.77383 27.183 9.38674C26.2819 8.40583 25.3561 7.60604 24.3693 6.96592C22.5975 5.81665 20.8631 5.33545 19.2209 5.04863C10.6799 3.55693 4.28518 11.5152 5.25445 20.0256C5.87417 25.4669 8.88318 30.3432 11.819 34.0158C14.5896 37.4816 17.5848 40.2232 19.1896 41.6922C19.3102 41.8026 19.423 41.9058 19.5272 42.0015L21.1601 43.5024L23.2061 42.6462C23.3226 42.5974 23.4472 42.5455 23.5795 42.4904L23.5795 42.4904C25.5822 41.6559 29.3336 40.0927 33.1452 37.7659C37.1537 35.3189 41.6348 31.7902 44.1712 26.9578C46.1429 23.2011 46.4727 18.9756 45.1074 15.3694C43.7144 11.6903 40.5986 8.82772 36.2199 8.04602Z" fill="#E1ECED"/>
</g>
<defs>
<filter id="filter0_bi_908_31428" x="-5.56055" y="-5.03125" width="60.1211" height="60.1211" filterUnits="userSpaceOnUse" color-interpolation-filters="sRGB">
<feFlood flood-opacity="0" result="BackgroundImageFix"/>
<feGaussianBlur in="BackgroundImageFix" stdDeviation="3"/>
<feComposite in2="SourceAlpha" operator="in" result="effect1_backgroundBlur_908_31428"/>
<feBlend mode="normal" in="SourceGraphic" in2="effect1_backgroundBlur_908_31428" result="shape"/>
<feColorMatrix in="SourceAlpha" type="matrix" values="0 0 0 0 0 0 0 0 0 0 0 0 0 0 0 0 0 0 127 0" result="hardAlpha"/>
<feOffset dy="1.5"/>
<feGaussianBlur stdDeviation="2"/>
<feComposite in2="hardAlpha" operator="arithmetic" k2="-1" k3="1"/>
<feColorMatrix type="matrix" values="0 0 0 0 0.42 0 0 0 0 0.585 0 0 0 0 0.6 0 0 0 0.2 0"/>
<feBlend mode="normal" in2="shape" result="effect2_innerShadow_908_31428"/>
</filter>
</defs>
</svg>
