<svg width="32" height="32" viewBox="0 0 32 32" fill="none" xmlns="http://www.w3.org/2000/svg">
<g clip-path="url(#clip0_1394_11036)">
<mask id="mask0_1394_11036" style="mask-type:luminance" maskUnits="userSpaceOnUse" x="0" y="0" width="32" height="32">
<path d="M0 0H32V32H0V0Z" fill="white"/>
</mask>
<g mask="url(#mask0_1394_11036)">
<path fill-rule="evenodd" clip-rule="evenodd" d="M19.0907 19.092C16.568 21.6747 16.3907 24.9147 16.1773 31.9987C22.772 31.9987 27.3413 31.9787 29.6867 29.6867C31.9773 27.3413 32 22.5573 32 16.1773C24.9147 16.3907 21.6747 16.568 19.0907 19.092ZM0 16.1773C0 22.5573 0.0213332 27.3413 2.312 29.6867C4.65867 31.9787 9.228 32 15.8227 32C15.6093 24.9147 15.432 21.6747 12.9093 19.092C10.3253 16.5667 7.08533 16.3907 0 16.1773ZM15.824 0C9.22667 0 4.65867 0.0226666 2.31333 2.31333C0.0226666 4.65867 0 9.44267 0 15.824C7.08533 15.6107 10.3253 15.432 12.9093 12.9093C15.432 10.3253 15.6093 7.08533 15.824 0ZM19.0907 12.9093C16.568 10.3253 16.3907 7.08533 16.1773 0C22.772 0 27.3413 0.0226666 29.6867 2.31333C31.9773 4.65867 32 9.44267 32 15.824C24.9147 15.6107 21.6747 15.432 19.0907 12.9093Z" fill="#BCCED1"/>
</g>
</g>
<defs>
<clipPath id="clip0_1394_11036">
<rect width="32" height="32" fill="white"/>
</clipPath>
</defs>
</svg>
