<svg width="38" height="28" viewBox="0 0 38 28" fill="none" xmlns="http://www.w3.org/2000/svg">
<g clip-path="url(#clip0_1394_11042)">
<path fill-rule="evenodd" clip-rule="evenodd" d="M35.9532 2.37733C36.537 2.97011 36.9568 3.70576 37.1712 4.51159C38.4127 9.5718 38.1262 17.5674 37.1963 22.8243C36.9802 23.6318 36.5591 24.3684 35.9767 24.9586C35.3928 25.5488 34.6664 25.9769 33.8711 26.1941C30.9545 27 19.2192 27 19.2192 27C19.2192 27 7.4839 27 4.56887 26.1941C3.77085 25.9719 3.04434 25.5442 2.46115 24.9532C1.87797 24.3622 1.45831 23.6284 1.24366 22.8243C-0.00563875 17.7846 0.337214 9.78585 1.21861 4.5352C1.4314 3.73024 1.85043 2.99545 2.4339 2.40416C3.01737 1.81286 3.74487 1.38574 4.54382 1.1654C7.46042 0.36112 19.1957 0.335938 19.1957 0.335938C19.1957 0.335938 30.931 0.335938 33.846 1.14179C34.644 1.36076 35.3707 1.78685 35.9532 2.37733ZM25.2618 13.819L15.4103 19.5559V8.08203L25.2618 13.819Z" fill="#BCCED1"/>
</g>
<defs>
<clipPath id="clip0_1394_11042">
<rect width="38" height="27.0222" fill="white" transform="translate(0 0.488281)"/>
</clipPath>
</defs>
</svg>
